<?xml version="1.0" encoding="UTF-8" standalone="no"?><!DOCTYPE svg PUBLIC "-//W3C//DTD SVG 1.1//EN" "http://www.w3.org/Graphics/SVG/1.1/DTD/svg11.dtd"><svg width="100%" height="100%" viewBox="0 0 1792 318" version="1.1" xmlns="http://www.w3.org/2000/svg" xmlns:xlink="http://www.w3.org/1999/xlink" xml:space="preserve" xmlns:serif="http://www.serif.com/" style="fill-rule:evenodd;clip-rule:evenodd;stroke-linejoin:round;stroke-miterlimit:2;"><rect id="Artboard4" x="0" y="0" width="1791.31" height="317.013" style="fill:none;"/><clipPath id="_clip1"><rect x="0" y="0" width="1791.31" height="317.013"/></clipPath><g clip-path="url(#_clip1)"><g><g transform="matrix(329.536,0,0,329.536,-9.30458,245.875)"><path d="M0.369,0.012c-0.07,0 -0.129,-0.015 -0.18,-0.046c-0.05,-0.03 -0.089,-0.072 -0.116,-0.127c-0.028,-0.054 -0.041,-0.117 -0.041,-0.188c-0,-0.072 0.013,-0.135 0.041,-0.19c0.027,-0.054 0.066,-0.097 0.116,-0.127c0.051,-0.031 0.11,-0.046 0.18,-0.046c0.083,-0 0.15,0.02 0.202,0.06c0.052,0.041 0.085,0.097 0.099,0.17l-0.122,0c-0.009,-0.04 -0.029,-0.073 -0.059,-0.096c-0.03,-0.024 -0.071,-0.035 -0.121,-0.035c-0.046,-0 -0.086,0.01 -0.119,0.031c-0.034,0.022 -0.06,0.052 -0.078,0.091c-0.018,0.04 -0.027,0.087 -0.027,0.142c-0,0.054 0.009,0.101 0.027,0.141c0.018,0.039 0.044,0.069 0.078,0.09c0.033,0.021 0.073,0.032 0.119,0.032c0.05,-0 0.091,-0.011 0.121,-0.034c0.03,-0.023 0.05,-0.055 0.06,-0.097l0.122,0c-0.014,0.073 -0.047,0.129 -0.1,0.169c-0.052,0.04 -0.119,0.06 -0.202,0.06Z" style="fill-rule:nonzero;"/></g><g transform="matrix(329.536,0,0,329.536,210.825,245.875)"><path d="M0.288,0.012c-0.05,0 -0.094,-0.011 -0.133,-0.033c-0.039,-0.021 -0.071,-0.052 -0.093,-0.091c-0.023,-0.039 -0.035,-0.084 -0.035,-0.136c0,-0.052 0.012,-0.098 0.035,-0.137c0.023,-0.038 0.054,-0.069 0.094,-0.09c0.039,-0.022 0.084,-0.033 0.132,-0.033c0.05,0 0.094,0.011 0.133,0.033c0.04,0.021 0.071,0.052 0.093,0.09c0.023,0.039 0.035,0.085 0.035,0.137c-0,0.052 -0.012,0.097 -0.035,0.136c-0.023,0.039 -0.054,0.07 -0.093,0.091c-0.04,0.022 -0.084,0.033 -0.133,0.033Zm-0.001,-0.095c0.027,0 0.052,-0.006 0.075,-0.018c0.022,-0.013 0.04,-0.031 0.053,-0.056c0.014,-0.024 0.02,-0.054 0.02,-0.091c0,-0.037 -0.006,-0.067 -0.02,-0.092c-0.013,-0.024 -0.031,-0.042 -0.053,-0.055c-0.022,-0.012 -0.047,-0.018 -0.073,-0.018c-0.027,-0 -0.051,0.006 -0.074,0.018c-0.022,0.013 -0.04,0.031 -0.054,0.055c-0.014,0.025 -0.02,0.055 -0.02,0.092c-0,0.036 0.006,0.067 0.02,0.091c0.013,0.025 0.031,0.043 0.053,0.056c0.023,0.012 0.047,0.018 0.074,0.018Z" style="fill-rule:nonzero;"/></g><g transform="matrix(329.536,0,0,329.536,392.4,245.875)"><path d="M0.05,-0l0,-0.496l0.11,0l0,0.079c0.016,-0.028 0.039,-0.051 0.068,-0.067c0.028,-0.016 0.061,-0.024 0.098,-0.024c0.061,0 0.108,0.019 0.142,0.056c0.034,0.038 0.051,0.094 0.051,0.168l0,0.284l-0.11,-0l0,-0.273c0,-0.047 -0.009,-0.082 -0.029,-0.106c-0.019,-0.024 -0.048,-0.035 -0.086,-0.035c-0.039,-0 -0.071,0.013 -0.096,0.041c-0.025,0.027 -0.038,0.066 -0.038,0.117l0,0.256l-0.11,0Z" style="fill-rule:nonzero;"/></g><g transform="matrix(329.536,0,0,329.536,566.724,245.875)"><path d="M0.235,-0c-0.031,-0 -0.057,-0.004 -0.078,-0.011c-0.021,-0.008 -0.037,-0.022 -0.048,-0.042c-0.011,-0.021 -0.016,-0.051 -0.016,-0.09l0,-0.26l-0.085,-0l-0,-0.093l0.085,0l0,-0.127l0.11,0l0,0.127l0.133,0l0,0.093l-0.133,-0l0,0.245c0,0.019 0.002,0.033 0.005,0.042c0.004,0.01 0.01,0.016 0.02,0.018c0.01,0.003 0.024,0.004 0.043,0.004l0.06,0l-0,0.094l-0.096,0Z" style="fill-rule:nonzero;"/></g><g transform="matrix(329.536,0,0,329.536,675.471,245.875)"><path d="M0.05,-0l0,-0.496l0.11,0l0,0.077c0.012,-0.026 0.028,-0.045 0.048,-0.06c0.02,-0.014 0.043,-0.021 0.07,-0.021l0.069,-0l-0,0.099l-0.08,0c-0.023,0 -0.042,0.007 -0.058,0.019c-0.016,0.012 -0.028,0.031 -0.036,0.057c-0.009,0.026 -0.013,0.059 -0.013,0.099l0,0.226l-0.11,-0Z" style="fill-rule:nonzero;"/></g><g transform="matrix(329.536,0,0,329.536,785.536,245.875)"><path d="M0.214,0.012c-0.039,0 -0.071,-0.007 -0.098,-0.02c-0.027,-0.014 -0.048,-0.032 -0.062,-0.055c-0.013,-0.023 -0.02,-0.048 -0.02,-0.074c-0,-0.053 0.019,-0.093 0.057,-0.122c0.038,-0.028 0.088,-0.043 0.15,-0.043c0.028,0 0.053,0.002 0.075,0.007c0.022,0.004 0.04,0.008 0.054,0.013l-0,-0.023c-0,-0.039 -0.011,-0.067 -0.032,-0.086c-0.021,-0.019 -0.049,-0.028 -0.083,-0.028c-0.026,-0 -0.049,0.005 -0.069,0.016c-0.02,0.01 -0.032,0.029 -0.038,0.056l-0.106,-0c0.004,-0.036 0.016,-0.065 0.036,-0.089c0.021,-0.024 0.046,-0.042 0.077,-0.054c0.031,-0.012 0.064,-0.018 0.1,-0.018c0.072,0 0.128,0.018 0.166,0.054c0.039,0.036 0.059,0.086 0.059,0.149l-0,0.13c-0,0.025 0.001,0.043 0.004,0.055c0.003,0.012 0.008,0.019 0.015,0.022c0.007,0.003 0.017,0.004 0.029,0.004l0.005,0l0,0.094l-0.024,0c-0.034,0 -0.061,-0.005 -0.084,-0.015c-0.022,-0.01 -0.037,-0.03 -0.046,-0.06c-0.016,0.025 -0.038,0.046 -0.065,0.062c-0.027,0.017 -0.061,0.025 -0.1,0.025Zm0.022,-0.086c0.025,-0 0.047,-0.006 0.065,-0.019c0.018,-0.012 0.033,-0.028 0.044,-0.048c0.011,-0.021 0.017,-0.042 0.02,-0.066c-0.014,-0.004 -0.032,-0.008 -0.052,-0.012c-0.02,-0.004 -0.041,-0.006 -0.061,-0.006c-0.036,0 -0.062,0.008 -0.08,0.022c-0.018,0.015 -0.027,0.034 -0.027,0.058c-0,0.021 0.008,0.037 0.024,0.051c0.016,0.013 0.038,0.02 0.067,0.02Z" style="fill-rule:nonzero;"/></g><g transform="matrix(329.536,0,0,329.536,958.542,245.875)"><path d="M0.281,0.012c-0.049,0 -0.093,-0.011 -0.131,-0.033c-0.038,-0.022 -0.069,-0.053 -0.091,-0.092c-0.022,-0.039 -0.033,-0.084 -0.033,-0.135c0,-0.052 0.011,-0.097 0.033,-0.136c0.022,-0.038 0.053,-0.069 0.091,-0.091c0.038,-0.022 0.082,-0.033 0.131,-0.033c0.061,0 0.113,0.016 0.155,0.048c0.042,0.032 0.069,0.076 0.08,0.131l-0.114,-0c-0.007,-0.027 -0.021,-0.047 -0.043,-0.062c-0.022,-0.015 -0.048,-0.023 -0.079,-0.023c-0.025,0 -0.048,0.007 -0.07,0.02c-0.022,0.013 -0.039,0.031 -0.052,0.056c-0.013,0.024 -0.019,0.054 -0.019,0.09c-0,0.035 0.006,0.065 0.019,0.09c0.013,0.025 0.03,0.044 0.052,0.057c0.022,0.013 0.045,0.019 0.07,0.019c0.031,0 0.057,-0.007 0.079,-0.022c0.022,-0.015 0.036,-0.036 0.043,-0.063l0.114,0c-0.011,0.053 -0.037,0.097 -0.08,0.13c-0.042,0.033 -0.094,0.049 -0.155,0.049Z" style="fill-rule:nonzero;"/></g><g transform="matrix(329.536,0,0,329.536,1127.59,245.875)"><path d="M0.235,-0c-0.031,-0 -0.057,-0.004 -0.078,-0.011c-0.021,-0.008 -0.037,-0.022 -0.048,-0.042c-0.011,-0.021 -0.016,-0.051 -0.016,-0.09l0,-0.26l-0.085,-0l-0,-0.093l0.085,0l0,-0.127l0.11,0l0,0.127l0.133,0l0,0.093l-0.133,-0l0,0.245c0,0.019 0.002,0.033 0.005,0.042c0.004,0.01 0.01,0.016 0.02,0.018c0.01,0.003 0.024,0.004 0.043,0.004l0.06,0l-0,0.094l-0.096,0Z" style="fill-rule:nonzero;"/></g><g transform="matrix(329.536,0,0,329.536,1236.34,245.875)"><rect x="0.051" y="-0.72" width="0.11" height="0.72" style="fill-rule:nonzero;"/></g><g transform="matrix(329.536,0,0,329.536,1294.01,245.875)"><path d="M0.039,0.22l-0,-0.089l0.103,0c0.01,0 0.018,-0.001 0.025,-0.004c0.006,-0.002 0.012,-0.008 0.018,-0.017c0.007,-0.009 0.013,-0.022 0.021,-0.041l0.05,-0.108l-0.008,0.052l-0.217,-0.509l0.12,0l0.149,0.364l0.157,-0.364l0.116,0l-0.267,0.599c-0.011,0.026 -0.021,0.047 -0.029,0.062c-0.009,0.016 -0.017,0.027 -0.025,0.035c-0.007,0.008 -0.017,0.013 -0.027,0.016c-0.011,0.003 -0.024,0.004 -0.04,0.004l-0.146,0Z" style="fill-rule:nonzero;"/></g><g transform="matrix(329.536,0,0,329.536,1488.44,245.875)"></g><g><g transform="matrix(241.259,0,0,241.259,1501.34,242.004)"><path d="M0.339,0.013c-0.053,0 -0.096,-0.014 -0.128,-0.042c-0.031,-0.027 -0.054,-0.066 -0.067,-0.116c-0.013,-0.05 -0.018,-0.108 -0.015,-0.174l-0.085,0.111c-0.009,0.012 -0.02,0.018 -0.032,0.018c-0.012,0 -0.023,-0.004 -0.033,-0.011c-0.009,-0.007 -0.016,-0.017 -0.018,-0.029c-0.003,-0.012 -0,-0.024 0.009,-0.036c0.043,-0.057 0.08,-0.104 0.109,-0.143c0.029,-0.039 0.054,-0.073 0.074,-0.1l0.016,-0.077c0.007,-0.031 0.017,-0.066 0.029,-0.105c0.012,-0.039 0.026,-0.077 0.041,-0.115c0.015,-0.038 0.032,-0.072 0.05,-0.103c0.018,-0.032 0.037,-0.055 0.056,-0.071c0.019,-0.016 0.037,-0.021 0.056,-0.015c0.019,0.006 0.031,0.019 0.036,0.038c0.005,0.019 0.005,0.043 0.001,0.071c-0.005,0.028 -0.013,0.058 -0.024,0.09c-0.011,0.033 -0.024,0.065 -0.039,0.097c-0.015,0.032 -0.03,0.062 -0.045,0.089c-0.009,0.015 -0.019,0.033 -0.03,0.052c-0.012,0.02 -0.031,0.048 -0.056,0.083c-0.018,0.095 -0.024,0.172 -0.019,0.23c0.005,0.058 0.018,0.1 0.039,0.125c0.021,0.026 0.046,0.039 0.075,0.039c0.041,-0 0.077,-0.014 0.106,-0.041c0.029,-0.027 0.054,-0.075 0.075,-0.144c-0.025,-0.005 -0.05,-0.013 -0.073,-0.025c-0.024,-0.011 -0.043,-0.027 -0.058,-0.048c-0.015,-0.021 -0.023,-0.046 -0.023,-0.076c0,-0.025 0.006,-0.048 0.018,-0.067c0.011,-0.019 0.027,-0.034 0.046,-0.045c0.019,-0.011 0.039,-0.016 0.062,-0.016c0.033,-0 0.06,0.008 0.081,0.024c0.021,0.017 0.036,0.039 0.045,0.066c0.009,0.027 0.014,0.057 0.013,0.09c0.008,-0.001 0.017,-0.003 0.026,-0.006c0.009,-0.002 0.018,-0.004 0.027,-0.007c0.015,-0.005 0.027,-0.005 0.038,0.002c0.01,0.007 0.017,0.016 0.021,0.027c0.003,0.011 0.003,0.023 -0.001,0.034c-0.004,0.011 -0.013,0.02 -0.028,0.025c-0.017,0.006 -0.033,0.011 -0.049,0.014c-0.017,0.004 -0.033,0.007 -0.048,0.009c-0.001,0.001 -0.001,0.002 -0.001,0.003c0,0.001 -0,0.002 -0.001,0.003c-0.015,0.054 -0.035,0.101 -0.061,0.142c-0.027,0.041 -0.058,0.073 -0.094,0.096c-0.036,0.023 -0.076,0.034 -0.121,0.034Zm0.198,-0.372c0.001,-0.031 -0.004,-0.054 -0.015,-0.069c-0.011,-0.014 -0.021,-0.021 -0.03,-0.021c-0.011,-0 -0.018,0.003 -0.023,0.01c-0.005,0.007 -0.007,0.015 -0.007,0.024c0,0.011 0.005,0.022 0.015,0.033c0.01,0.011 0.03,0.018 0.06,0.023Z" style="fill-rule:nonzero;"/></g><g transform="matrix(241.259,0,0,241.259,1501.34,242.004)"></g><g transform="matrix(241.259,0,0,241.259,1653.33,242.004)"><path d="M0.268,0.017c-0.046,0 -0.086,-0.011 -0.121,-0.034c-0.034,-0.023 -0.061,-0.053 -0.08,-0.092c-0.019,-0.038 -0.029,-0.081 -0.029,-0.128c-0,-0.045 0.007,-0.088 0.022,-0.129c0.015,-0.041 0.035,-0.078 0.061,-0.111c0.026,-0.032 0.056,-0.057 0.09,-0.077c0.035,-0.018 0.071,-0.028 0.11,-0.028c0.04,0 0.072,0.01 0.097,0.03c0.025,0.021 0.037,0.05 0.037,0.088c0,0.037 -0.011,0.069 -0.033,0.097c-0.022,0.029 -0.051,0.059 -0.088,0.091c-0.028,0.024 -0.057,0.047 -0.087,0.068c-0.03,0.021 -0.062,0.041 -0.095,0.062c0.023,0.046 0.061,0.069 0.116,0.069c0.033,0 0.068,-0.01 0.105,-0.03c0.037,-0.021 0.078,-0.055 0.123,-0.102c0.011,-0.011 0.022,-0.016 0.034,-0.015c0.012,0.001 0.022,0.005 0.031,0.014c0.009,0.009 0.014,0.019 0.015,0.031c0.002,0.012 -0.002,0.023 -0.012,0.034c-0.049,0.051 -0.097,0.091 -0.146,0.12c-0.048,0.028 -0.098,0.042 -0.15,0.042Zm-0.134,-0.263c0.025,-0.017 0.049,-0.033 0.073,-0.049c0.022,-0.017 0.044,-0.034 0.065,-0.053c0.035,-0.03 0.059,-0.055 0.071,-0.075c0.012,-0.02 0.018,-0.034 0.018,-0.041c-0,-0.005 -0.002,-0.01 -0.005,-0.015c-0.003,-0.005 -0.014,-0.007 -0.035,-0.007c-0.029,0 -0.058,0.01 -0.086,0.031c-0.028,0.021 -0.052,0.049 -0.071,0.085c-0.019,0.036 -0.029,0.077 -0.03,0.124Z" style="fill-rule:nonzero;"/></g><g transform="matrix(241.259,0,0,241.259,1653.33,242.004)"></g><g transform="matrix(241.259,0,0,241.259,1764.79,242.004)"></g><text x="1415.93px" y="242.004px" style="font-family:'MomoSignature-Regular', 'Momo Signature';font-size:241.259px;">.</text></g></g></g></svg>