<?xml version="1.0" encoding="UTF-8" standalone="no"?><!DOCTYPE svg PUBLIC "-//W3C//DTD SVG 1.1//EN" "http://www.w3.org/Graphics/SVG/1.1/DTD/svg11.dtd"><svg width="100%" height="100%" viewBox="0 0 2201 581" version="1.1" xmlns="http://www.w3.org/2000/svg" xmlns:xlink="http://www.w3.org/1999/xlink" xml:space="preserve" xmlns:serif="http://www.serif.com/" style="fill-rule:evenodd;clip-rule:evenodd;stroke-linejoin:round;stroke-miterlimit:2;"><rect id="Artboard1" x="0" y="0" width="2200.96" height="580.926" style="fill:none;"/><g><g><g transform="matrix(551.805,0,0,551.805,666.967,457.203)"><path d="M0.056,-0l-0,-0.7l0.143,0l0.256,0.599l-0.053,0.006l0.255,-0.605l0.142,0l0,0.7l-0.12,-0l0,-0.6l0.041,0.025l-0.245,0.575l-0.094,-0l-0.246,-0.575l0.041,-0.025l-0,0.6l-0.12,-0Z" style="fill:#0f172a;fill-rule:nonzero;"/></g><g transform="matrix(551.805,0,0,551.805,1138.76,457.203)"><path d="M0.288,0.012c-0.05,0 -0.094,-0.011 -0.134,-0.033c-0.04,-0.022 -0.071,-0.052 -0.094,-0.091c-0.023,-0.04 -0.035,-0.085 -0.035,-0.136c0,-0.052 0.012,-0.097 0.035,-0.136c0.023,-0.039 0.055,-0.069 0.095,-0.091c0.04,-0.022 0.084,-0.033 0.133,-0.033c0.05,0 0.094,0.011 0.134,0.033c0.04,0.022 0.071,0.052 0.094,0.091c0.023,0.039 0.035,0.084 0.035,0.136c-0,0.051 -0.012,0.096 -0.035,0.136c-0.023,0.039 -0.055,0.069 -0.094,0.091c-0.04,0.022 -0.085,0.033 -0.134,0.033Zm-0,-0.104c0.025,0 0.049,-0.005 0.07,-0.017c0.021,-0.012 0.038,-0.029 0.05,-0.052c0.013,-0.024 0.019,-0.052 0.019,-0.087c0,-0.035 -0.006,-0.064 -0.019,-0.087c-0.013,-0.023 -0.029,-0.04 -0.05,-0.052c-0.021,-0.012 -0.044,-0.017 -0.069,-0.017c-0.025,-0 -0.049,0.005 -0.07,0.017c-0.021,0.012 -0.038,0.029 -0.051,0.052c-0.013,0.023 -0.019,0.052 -0.019,0.087c-0,0.035 0.006,0.063 0.019,0.087c0.012,0.023 0.029,0.04 0.05,0.052c0.021,0.012 0.045,0.017 0.07,0.017Z" style="fill:#0f172a;fill-rule:nonzero;"/></g><g transform="matrix(551.805,0,0,551.805,1456.6,457.203)"><path d="M0.045,-0l0,-0.496l0.12,0l0,0.077c0.017,-0.028 0.039,-0.049 0.067,-0.065c0.029,-0.016 0.061,-0.024 0.098,-0.024c0.062,0 0.109,0.019 0.143,0.057c0.034,0.039 0.051,0.095 0.051,0.169l-0,0.282l-0.12,-0l-0,-0.27c-0,-0.045 -0.009,-0.079 -0.028,-0.102c-0.018,-0.023 -0.046,-0.034 -0.083,-0.034c-0.037,-0 -0.067,0.013 -0.091,0.039c-0.025,0.026 -0.037,0.063 -0.037,0.111l0,0.256l-0.12,0Z" style="fill:#0f172a;fill-rule:nonzero;"/></g><g transform="matrix(551.805,0,0,551.805,1770.58,457.203)"><rect x="0.046" y="-0.72" width="0.12" height="0.72" style="fill:#0f172a;fill-rule:nonzero;"/></g><g transform="matrix(551.805,0,0,551.805,1880.94,457.203)"><path d="M0.035,0.22l0,-0.096l0.105,0c0.01,0 0.018,-0.001 0.025,-0.004c0.006,-0.002 0.012,-0.008 0.019,-0.016c0.006,-0.008 0.012,-0.021 0.02,-0.039l0.046,-0.101l-0.007,0.055l-0.217,-0.515l0.131,0l0.143,0.355l0.15,-0.355l0.128,0l-0.266,0.6c-0.011,0.026 -0.021,0.046 -0.029,0.061c-0.008,0.016 -0.016,0.027 -0.024,0.035c-0.008,0.008 -0.018,0.013 -0.028,0.016c-0.011,0.003 -0.025,0.004 -0.041,0.004l-0.155,0Z" style="fill:#0f172a;fill-rule:nonzero;"/></g><g transform="matrix(551.805,0,0,551.805,2206.5,457.203)"></g></g><g><rect x="0" y="234.77" width="153.69" height="287.013" style="fill:#10b981;"/><path d="M153.69,234.77l-0,-122.656l153.69,0l-0,409.669l-92.976,0l-0,-287.013l-60.714,-0Z" style="fill:#ef4444;"/><rect x="153.69" y="234.77" width="60.714" height="287.013" style="fill:#facc15;"/><rect x="307.38" y="112.114" width="60.714" height="409.669" style="fill:#f97316;"/><path d="M307.38,112.114l-0,-112.114l214.403,0l0,521.783l-153.69,0l0,-409.669l-60.713,0Z" style="fill:#3b82f6;"/></g></g></svg>